<svg id="Layer_1" data-name="Layer 1" xmlns="http://www.w3.org/2000/svg" viewBox="0 0 77.33 110.68"><title>final_logo_big</title><path d="M41.87,107.24h-26c-1,0-2-.07-3-.08-.75,0-1.11-.35-1.09-1.1,0-.32,0-.64,0-1q0-30.78,0-61.55c0-10.44.07-20.87.11-31.31,0-1.56.07-1.64,1.62-1.64q28.62,0,57.23,0c1.1,0,1.42.29,1.41,1.4,0,15.32.08,30.64-.05,46-.14,16,0,32-.09,48,0,1.6,0,1.6-1.58,1.6l-22,0H41.87ZM29,91a5.15,5.15,0,0,0,.88,2.69,4.72,4.72,0,0,1,.24,4.47c-.46.94-.06,1.62,1,1.81a37.4,37.4,0,0,0,6.79.6,1.15,1.15,0,0,0,1.21-.79c.61-2.08,1.81-3.9,2.48-6,.2-.62.2-1-.5-1.3a2.27,2.27,0,0,1,0-4.06c2-.82,2.26-2.53,3.11-4.22-1.19,0-2.19,0-3.18,0a10.93,10.93,0,0,1-4.75-.55,5.41,5.41,0,0,0-3.65,0c-.9.27-1.49.72-1.31,1.8A1.45,1.45,0,0,1,31,86.7c-.57.74-.1.83.52.91a8.82,8.82,0,0,0,2.2-.38c0,.72-.4.64-.87.69-1,.11-2.07.32-2.39,1.36a2.64,2.64,0,0,1-1.55,1.81,4.06,4.06,0,0,0,1.26-3,3.73,3.73,0,0,1,.57-1.68,1.91,1.91,0,0,0-.57-2.57,47.65,47.65,0,0,0-5.77-3.63,9.42,9.42,0,0,1-2-1.32A34.87,34.87,0,0,0,18,76.1a11.06,11.06,0,0,0,1.15,4,1.08,1.08,0,0,1-.72,1.69,2.73,2.73,0,0,0-1.29.49c.92.56,1.38,2.37,2.76,1.08l3.15,12.39c.45-.08.5-.26.46-.4-.32-1.09-.28-2.31-1.07-3.24a.48.48,0,0,1,.09-.81c.4-.23.43.16.5.42.32,1.24.64,2.47.94,3.71.09.35.21.73-.38.78-1,.09-1,.67-.72,1.41.12.33.17.7.27,1a.39.39,0,0,1-.29.55.34.34,0,0,1-.45-.28c0-1.5-1.32-2.36-1.63-3.75-.76-3.38-1.7-6.73-2.54-10.09-.14-.58-.34-1-1-.86-1.22.24-1.73-.52-2.13-1.46.93.15,1.25-.69,1.81-1.13A.49.49,0,0,0,17,81c-.15-.25-.4-.21-.64-.14a1.7,1.7,0,0,0-1.18,1.95c-1.07-1.61-.74-3.37-.47-5.08a2.52,2.52,0,0,1,1.44-2c.73-.34.53-.63,0-1-.91-.58-1.8-1.18-2.72-1.74-.32-.19-.63-.66-1-.38s-.15.67-.15,1c0,10.51,0,21,0,31.53,0,1.15.34,1.54,1.5,1.52,3.4,0,6.79,0,10.19,0a1.94,1.94,0,0,0,1.79-1c1.15-1.73,2.34-3.43,3.5-5.15a2.7,2.7,0,0,0,.59-2.24,1.42,1.42,0,0,1,.14-.92,3.33,3.33,0,0,0-.2-3.21c-.33-.68-.65-1.37-.94-2.07C28.56,91.83,28.33,91.35,29,91Zm38.6-47.49c.89.56,1.69,1.09,2.51,1.57.43.26.91.86,1.32.63s.21-1,.21-1.55c0-3.4,0-6.8,0-10.19q0-10.67,0-21.35c0-.87,0-1.6-1.22-1.59-3.16,0-6.31,0-9.47,0a1.42,1.42,0,0,0-1.36.61c-1.65,3.24-5,5.51-5.25,9.6a5.59,5.59,0,0,0,.38,3.28,19,19,0,0,1,.91,1.95c.21.53.34,1.15-.24,1.52a3,3,0,0,0-1.27,2.45,5.74,5.74,0,0,1-.57,2.19,1.61,1.61,0,0,0,.65,2.43q2.9,1.79,5.76,3.67c.6.39.9.29,1.16-.35a5.87,5.87,0,0,1,3.26-3.34c.53-.23.57-.51.48-1-.46-2.46-.88-4.93-1.34-7.55-.59.57-1,.7-1.08-.22-.15-1.19-.38-2.36-.6-3.54-.06-.33-.19-.71.29-.74,1.44-.08,1.06-1,.9-1.84,0-.24-.1-.47-.12-.71a.38.38,0,0,1,.31-.45.32.32,0,0,1,.42.31c-.06,1.51,1.19,2.52,1.41,3.95.51,3.35,1.15,6.69,1.74,10,.12.7.15,1.42,1.27,1.18.67-.14,1,.52,1.33,1A6.08,6.08,0,0,1,67.58,43.55ZM12.24,23.09h0c0,3.52,0,7,0,10.55a1.16,1.16,0,0,0,1,1.3,29.69,29.69,0,0,1,6.11,2.39,1.24,1.24,0,0,0,1.34-.09,37.55,37.55,0,0,1,6.72-3.38,1,1,0,0,0,.75-1c0-1.72.26-2,1.87-2.57a1.82,1.82,0,0,0,1.45-2.16,5.14,5.14,0,0,1,.74-3.54c.7-1.25,1.32-2.55,2-3.81a2.27,2.27,0,0,0-.07-2.48,28.28,28.28,0,0,1-2.3-4.19c-.91-2.37-2.38-3.13-4.94-3-4.26.25-8.54,0-12.81,0-1.55,0-1.79.26-1.79,1.82Q12.24,18,12.24,23.09Zm59.4,72.45q0-5.1,0-10.2c0-.61,0-1.17-.77-1.4a37.29,37.29,0,0,1-5.57-2.18,1.35,1.35,0,0,0-1.45.09,34.29,34.29,0,0,1-6.75,3.34c-.46.17-.78.4-.73.94a2.18,2.18,0,0,1-2,2.55A1.66,1.66,0,0,0,53,90.59a5.7,5.7,0,0,1-.86,3.77c-.7,1.21-1.27,2.5-2,3.68a2.23,2.23,0,0,0,0,2.56c1,1.76,2,3.54,3,5.35A1.76,1.76,0,0,0,54.92,107q7.61,0,15.23.16c1.16,0,1.53-.42,1.51-1.56C71.6,102.26,71.64,98.9,71.64,95.54ZM48.16,18.16c-.89.22-2-.41-2.58.77-1,2-1.91,4.12-2.88,6.17-.27.58-.2,1,.47,1.19a1.9,1.9,0,0,1,1.24,2.09c0,1-.27,1.91-1.25,2.25s-.85.8-.23,1.38c.26.25.49.53.77.76A9.76,9.76,0,0,0,51,35.26c1.56-.13,2-.61,2-2.15a1.77,1.77,0,0,1,.27-.9c.58-.89,0-1-.69-1-.39,0-.78.17-1.17.2s-.47.38-.73.08a.39.39,0,0,1,0-.34c.15-.34.47-.23.73-.23A2.64,2.64,0,0,0,54,29.11,1.93,1.93,0,0,1,54.67,28c.82-.46.82-1.07.42-1.81s-.61-1.21-.9-1.82A3.9,3.9,0,0,1,54,21.06c.55-1.36.12-2.15-1.35-2.37S49.66,18.33,48.16,18.16ZM21.33,64.07h-.17c-.25-1.65-.51-3.3-.75-4.94-.44-3-.9-5.92-1.28-8.9-.12-.92-.67-.78-1.27-.81s-.79.13-.79.73q0,9,0,18c0,.57.19.76.76.77s.65-.39.65-.85c0-1.36,0-2.72,0-4.08q0-4,0-8.07c.76,3.57,1.34,7.15,1.94,10.73.08.47,0,1.09.75,1.14s.7-.62.76-1.07C22.49,63.15,23,59.56,23.55,56h.17q0,.58,0,1.15,0,5.4,0,10.8c0,.44-.17,1,.63,1s.72-.43.72-.93c0-5.88,0-11.76,0-17.64,0-.88-.39-1-1.08-.93s-.65.68-.72,1.14C22.63,55.07,22,59.57,21.33,64.07ZM42,73v-.08H67.91l.84,0c.4,0,.41-.31.41-.6s.08-.69-.4-.72c-.32,0-.64,0-1,0-6.39.05-12.78.14-19.18.15-10.68,0-21.36,0-32,0h-1c-.45,0-.5.27-.5.63s0,.65.48.64H42ZM57.86,59.18c-.13-2.43.18-4.87-.24-7.29-.31-1.79-1.13-2.61-2.69-2.65a2.74,2.74,0,0,0-2.85,2.65,16.65,16.65,0,0,0-.19,2.62c.07,3.91-.26,7.82.19,11.72a2.67,2.67,0,0,0,2.72,2.64,2.72,2.72,0,0,0,2.83-2.52C58.06,64,57.72,61.57,57.86,59.18Zm-25,0c-.13-2.43.18-4.87-.24-7.29-.31-1.77-1.15-2.6-2.71-2.63a2.73,2.73,0,0,0-2.83,2.67c-.43,3.3-.12,6.61-.2,9.92a23,23,0,0,0,.18,4.42,2.79,2.79,0,0,0,5.56.07C33.1,63.95,32.76,61.55,32.9,59.16Zm9-12.6h24.7c.32,0,.37-.22.37-.48s-.07-.47-.38-.48l-.84,0H18.14c-.32,0-.64,0-1,0s-.33.29-.33.53.08.39.33.41l1,0Zm17.54,2.83c.93,1.84,1.8,3.58,2.71,5.31a4.42,4.42,0,0,1,.52,2.17c0,3.52,0,7,0,10.55,0,.48-.54,1.4.64,1.42S64,68,64,67.46q.05-5.27,0-10.55a5.05,5.05,0,0,1,.62-2.51c.88-1.65,1.7-3.33,2.56-5a1.2,1.2,0,0,0-1.76.74c-.63,1.36-1.36,2.68-2.12,4.17-.78-1.54-1.51-2.86-2.14-4.23C60.82,49.29,60.34,49.07,59.43,49.39ZM36.24,59.17h0c0,3,0,5.91,0,8.86,0,.85.26,1.11,1.09,1.07,1.19-.06,2.39,0,3.59,0,.38,0,.86.1.84-.54s-.52-.48-.88-.49a13.53,13.53,0,0,0-2,0c-1,.12-1.26-.29-1.25-1.27q.07-7.9,0-15.81c0-.52.6-1.51-.65-1.53s-.68,1-.69,1.57C36.2,53.74,36.24,56.45,36.24,59.17Zm7.92,0h0q0,4.49,0,9c0,.47-.11,1,.66,1,1.4,0,2.79,0,4.19,0,.34,0,.64,0,.65-.49S49.35,68,49,68h-1.8c-1.88,0-1.62.16-1.62-1.57q0-8,0-16c0-.53.08-1-.75-1s-.64.52-.65,1Q44.15,54.75,44.16,59.12ZM67,36.38c-.27-.32-.61-.52-.66-.9-.07-.56-.44-.5-.79-.38a6.22,6.22,0,0,0-4.08,3.59c-.16.39-.28.79.15,1.06,1.68,1.07,3.38,2.12,5.07,3.18-.66-1.26-.61-2.62-1-3.83-.47,0-.2.59-.58.64C64.71,37.92,65.16,37.07,67,36.38ZM48.48,91.81a2.56,2.56,0,0,0-1.14-2.47,2.34,2.34,0,0,0-2.53.6,1.86,1.86,0,0,0-.24,2.22,1.33,1.33,0,0,0,1.54.86,1.47,1.47,0,0,0,1.29-1.24A1,1,0,0,0,47,90.65a.87.87,0,0,0-1,0,.5.5,0,0,0-.29.48.53.53,0,0,0,.3.46c.18.07.5-.5.55.1a.62.62,0,0,1-.31.46.66.66,0,0,1-.77-.16,1.11,1.11,0,0,1-.32-1.1A1.06,1.06,0,0,1,46,90a1.57,1.57,0,0,1,1.92,2.13A22.84,22.84,0,0,1,46.22,96a19.37,19.37,0,0,0-1.52,3.37c-.07.24-.25.6.15.7s.45-.24.53-.51a35.44,35.44,0,0,1,2.34-5.1A6.17,6.17,0,0,0,48.48,91.81ZM37.57,27.45c.1-.61.43-.85.94-.71a.87.87,0,0,1,.64.9A1.17,1.17,0,0,1,38.23,29a1.41,1.41,0,0,1-1.73-.92,2.55,2.55,0,0,1,.12-1.86,37.08,37.08,0,0,1,2.17-4.78,10.16,10.16,0,0,0,1-2.62c-.62-.14-.66.32-.8.6-.81,1.64-1.56,3.32-2.42,4.94a5.64,5.64,0,0,0-.55,4,1.55,1.55,0,0,0,1.65,1.38,2.07,2.07,0,0,0,2.24-1.58A1.77,1.77,0,0,0,38.82,26a1.35,1.35,0,0,0-1.61.44A1.32,1.32,0,0,0,37,27.94a.84.84,0,0,0,1.11.43.57.57,0,0,0,.48-.71C38.44,27,38,27.58,37.57,27.45ZM52.1,35.62c-.86.06-1.64.17-2.42.17-4.31,0-8.61,0-12.92-.07h-3c-.24,0-.52,0-.52.34s.26.35.52.34c.64,0,1.27,0,1.91,0l14.83.11C51.15,36.48,51.79,36.47,52.1,35.62ZM49.73,91.07c-.2-.69.18-.92.8-.92a1.38,1.38,0,0,1,1.31,1.66,6.72,6.72,0,0,1-.91,2.45,37.13,37.13,0,0,0-2.21,4.38c-.08.21-.24.5,0,.64s.4-.14.49-.37A47.94,47.94,0,0,1,52,93.59a4.13,4.13,0,0,0,.59-2.29,2.13,2.13,0,0,0-3-1.67A1.23,1.23,0,0,0,49,91.45a1.32,1.32,0,0,0,1.81.68c.37-.15.72-.49.43-.94s-.57-.75-1-.25C50.06,91.06,50,91.17,49.73,91.07Zm-14-71.51c-.55,0-.69.35-.81.67-.74,1.81-1.76,3.49-2.66,5.21a4.22,4.22,0,0,0-.46,1.47,2.2,2.2,0,0,0,2.36,2.61,1.41,1.41,0,0,0,1.34-1.31,1.44,1.44,0,0,0-1-1.5,1,1,0,0,0-1.39.55c-.15.33.06.61.34.82s.41.27.65.12.22-.21.1-.38-.44-.22-.12-.41a.52.52,0,0,1,.65.16.78.78,0,0,1-.61,1.23,1.55,1.55,0,0,1-1.61-2,14.78,14.78,0,0,1,1.78-4A12.2,12.2,0,0,0,35.69,19.55ZM32.3,83.22c.85-.06,1.63-.17,2.42-.17q6.7,0,13.4,0c.8,0,1.59.05,2.39.06.22,0,.53,0,.56-.29s-.29-.3-.51-.31l-17-.18A1.13,1.13,0,0,0,32.3,83.22ZM50,88.71a1.2,1.2,0,0,0,1-.77c.44-.71.83-1.46,1.32-2.13a1.67,1.67,0,0,1,2.4-.54,1.21,1.21,0,0,1,.43,1.28.92.92,0,0,1-.66.77A.65.65,0,0,1,53.7,87c-.08-.12-.16-.33-.11-.43.27-.48.42.09.63.09.51,0,.61-.36.43-.73a.8.8,0,0,0-1.21-.34A1.31,1.31,0,0,0,52.6,87c.08.69.65,1,1.25,1.13a1.58,1.58,0,0,0,1.78-.68,2,2,0,0,0-.39-2.6,1.89,1.89,0,0,0-2.7-.1A12.34,12.34,0,0,0,50,88.71ZM41.39,39.4v0h7.77c.28,0,.74.13.71-.37s-.42-.23-.66-.23L34,38.73c-.32,0-.73-.1-.76.33s.42.34.71.34Zm-7.17-9.23c-.79.22-.86.76-1.1,1.14a9.44,9.44,0,0,1-1.5,2.14,1.38,1.38,0,0,1-1.76.18,1.26,1.26,0,0,1-.56-1.45.87.87,0,0,1,.72-.71.69.69,0,0,1,.74.27.6.6,0,0,1,.12.43c0,.17-.21.17-.38.08-.4-.22-.76-.17-.7.35a.78.78,0,0,0,1,.65,1.08,1.08,0,0,0,.87-.74,1.06,1.06,0,0,0-.3-1.2,1.63,1.63,0,0,0-2.27-.18,2,2,0,0,0,2.41,3.22A8.71,8.71,0,0,0,34.22,30.17ZM35.66,32c-.1.44-.82.43-.6,1a.55.55,0,0,0,.58.34,1.15,1.15,0,0,0,1-.78.76.76,0,0,0-.29-1,1.49,1.49,0,0,0-1.69-.12,1.73,1.73,0,0,0-.52,2.5,1.85,1.85,0,0,0,2.75.25A9.23,9.23,0,0,0,39,30.19c-.74.06-.8.57-1,.92-.47.79-.86,1.63-1.4,2.36a1.29,1.29,0,0,1-1.65.26c-.5-.22-.49-.69-.42-1.14C34.64,32,35,31.8,35.66,32ZM48.52,86.71c.2-.34,1-.35.66-1a.52.52,0,0,0-.73-.19,1.22,1.22,0,0,0-.86,1.18c0,.75.58,1,1.24,1a1.62,1.62,0,0,0,1.58-1.24,1.76,1.76,0,0,0-2.74-1.93,8.67,8.67,0,0,0-2.3,4.2c1-.61,1.2-1.73,1.76-2.61a2.11,2.11,0,0,1,1.53-1.21,1,1,0,0,1,1,.5,1,1,0,0,1,0,1.22A.66.66,0,0,1,48.52,86.71Zm-8.09-58a.67.67,0,0,0-.07.86,2,2,0,0,0,1.84.91A1.87,1.87,0,0,0,43.91,29a1.83,1.83,0,0,0-.54-2.06,1.55,1.55,0,0,0-1.79-.11A1.16,1.16,0,0,0,41,28a1.11,1.11,0,0,0,1,1c.39.07.58-.22.67-.55.2-.71-.58-.47-.8-.8.4-.48.82-.49,1.17,0a1.09,1.09,0,0,1-.18,1.51C41.86,30.16,41.22,29.22,40.44,28.68Zm1.32,2.61c-.47,1-.88,1.81-1.3,2.65-.23.46-.11.66.4.66h4.22A25.2,25.2,0,0,1,41.76,31.29ZM43.85,91c.1-.79.36-1.37-.17-1.89a1.84,1.84,0,0,0-2-.44,1.89,1.89,0,0,0-1.34,1.8,1.73,1.73,0,0,0,1,1.77A1.07,1.07,0,0,0,42.64,92a1.27,1.27,0,0,0,.53-1.25,1,1,0,0,0-.86-.87.68.68,0,0,0-.78.59c-.15.66.62.34.9.68-.69.46-1.16.41-1.41-.27s.14-1.24.79-1.52S43.36,89.59,43.85,91ZM34.57,79.66V80H50.92v-.34Zm6-53c.6-3,2.37-5.48,3.26-8.28l-.54-.22c-.85,2.56-2.4,4.79-3.17,7.38A1,1,0,0,0,40.53,26.7Zm.78-.54c.39,0,.56-.15.62-.34.72-2.37,2.11-4.44,3-6.75.09-.24.48-.6,0-.77-.36-.12-.44.26-.55.5-.75,1.62-1.51,3.23-2.23,4.87A6.18,6.18,0,0,0,41.31,26.16Zm-.59,74.26a.57.57,0,0,0,.71-.53,17.19,17.19,0,0,1,1.95-4.35,5.66,5.66,0,0,0,.44-3.77C43.16,94.9,41.48,97.48,40.73,100.42Zm8.8-7.28c0-.19,0-.41-.26-.46s-.27.11-.33.26c-.79,2.13-2.12,4-2.84,6.16-.07.22-.38.55,0,.72s.57-.17.66-.48a50,50,0,0,1,2.45-5.42ZM43,92.44c-.33.36-.51.47-.58.64-1,2.28-1.89,4.57-2.84,6.85-.1.24-.16.49.17.56s.4-.23.46-.44c.53-1.72,1.43-3.29,2.1-4.95A5.78,5.78,0,0,0,43,92.44Zm3.6,1.62c0-.23,0-.38-.23-.42a.41.41,0,0,0-.48.26,44.22,44.22,0,0,0-2.51,5.79c-.06.21-.1.43.11.52.38.15.49-.19.56-.44a36,36,0,0,1,2.37-5.33ZM41.22,18.73l-.51-.27L37.5,25.31l.48.24C39.29,23.39,40.13,21,41.22,18.73ZM38.39,19c-.19,0-.37,0-.4.08a68.22,68.22,0,0,0-3.21,6.54c-.09.22-.13.51.19.57s.37-.26.44-.46a52.39,52.39,0,0,1,2.43-5.07A3,3,0,0,0,38.39,19Zm6.81,74.95c.06-.29,0-.46-.26-.49s-.37.26-.45.46q-1.21,2.85-2.39,5.71c-.1.24-.31.59,0,.73s.54-.19.62-.53a25.73,25.73,0,0,1,2-4.82C44.93,94.6,45.08,94.23,45.21,93.91ZM42.36,19c0-.24,0-.42-.18-.45s-.38.23-.47.44c-.87,1.92-1.74,3.83-2.6,5.76-.09.21-.41.53,0,.7s.51-.25.61-.53c.61-1.73,1.52-3.32,2.27-5C42.13,19.6,42.25,19.26,42.36,19Zm8.4,73.92c-.47,0-.63.32-.78.64q-1.25,2.64-2.49,5.3c-.11.23-.39.54,0,.7s.45-.21.53-.48a30.92,30.92,0,0,1,2.43-5A1.51,1.51,0,0,0,50.76,92.91ZM36.81,19.8a18,18,0,0,0-3.06,5.72A25,25,0,0,0,36.81,19.8Zm.87,14.64c1.18-.55,2.54-3.33,2.18-4.62C39.18,31.53,38.37,32.95,37.68,34.44ZM15.14,81.09c.36-.19.72-.36,1.05-.56s.83-.13.86-.67a.68.68,0,0,0-.37-.69c-.47-.2-.82.13-1.18.36a1.73,1.73,0,0,0-.74.89C14.64,80.76,14.73,81,15.14,81.09ZM41,30.89a7.48,7.48,0,0,0-1.72,3.57A5.22,5.22,0,0,0,41,30.89ZM69.77,38c0-.06-.13-.27-.22-.27-.58,0-1,.43-1.47.63a.58.58,0,0,0-.42.74c0,.18,0,.39.29.45C68.45,39.69,69.79,38.64,69.77,38ZM45.34,84.59,45,84.39a11,11,0,0,0-1.78,3.33.25.25,0,0,0,.23.34c.25,0,.33-.19.42-.37C44.36,86.66,44.85,85.63,45.34,84.59Zm-.75,4,1.88-3.83A4.43,4.43,0,0,0,44.59,88.64Zm24.8-52.06c-.05-.38-.25-.72-.52-.54-.52.34-1.28.53-1.36,1.3,0,.24.07.75.54.57A2.11,2.11,0,0,0,69.39,36.58Zm-34.59,1c0-.6-.44-.65-.91-.63s-.76.18-.76.68.35.73.85.72S34.82,38.16,34.79,37.59Zm3.08,0c0-.61-.44-.65-.91-.64s-.74.25-.71.73.44.69.92.66A.64.64,0,0,0,37.87,37.6ZM16.77,78.26c-.14-.26-.16-.58-.54-.56a1.75,1.75,0,0,0-1.56,1.09c-.11.23.27.38.48.34A2.45,2.45,0,0,0,16.77,78.26Zm46.57-52.1a18.45,18.45,0,0,0-.47-3.31c0-.17-.1-.32-.29-.31a.38.38,0,0,0-.27.17A7.31,7.31,0,0,0,63.33,26.16ZM40.13,37c-.47,0-.79.1-.79.63s.36.74.85.76a.68.68,0,0,0,.78-.7C41,37.08,40.63,36.91,40.13,37Zm3,0c-.48-.05-.69.2-.68.69s.35.67.78.69.76-.19.77-.68S43.67,36.92,43.13,37ZM38.06,80.6c-.45,0-.81.11-.83.6s.44.65.89.69a.66.66,0,0,0,.81-.76C38.91,80.56,38.44,80.63,38.06,80.6Zm9.16,0c-.49,0-.77.17-.75.67a.66.66,0,0,0,.76.7c.48,0,.85-.17.8-.77S47.65,80.59,47.22,80.62Zm2.09-42.31c.54-.05.93-.14.93-.68s-.39-.69-.88-.68-.76.19-.73.7A.62.62,0,0,0,49.31,38.32ZM34.76,80.61c-.35,0-.74,0-.69.62s.4.61.84.61.81-.13.79-.65S35.26,80.6,34.76,80.61Zm7.16.67c0-.48-.3-.68-.77-.68s-.88.09-.91.66.27.69.74.68S41.84,81.85,41.92,81.29Zm9.3.07a.72.72,0,0,0-.85-.73c-.47,0-.76.22-.77.69s.36.72.85.72S51.21,81.88,51.22,81.35ZM28.58,41.75c-.31.13-.92-.24-.92.36s.58.63,1.07.61c.33,0,.76.12.78-.44C29.54,41.51,28.94,41.85,28.58,41.75Zm6,0c-.3.14-.92-.25-.88.41s.54.59,1,.56.86.15.85-.49S34.88,41.88,34.54,41.74Zm6.06,0c-.33.12-.93-.23-.94.35s.56.64,1.06.62.84.08.79-.55S40.92,41.86,40.6,41.75Zm6,0c-.33.12-.93-.23-1,.33s.54.67,1,.64.85.12.82-.52S46.95,41.85,46.62,41.75Zm6.18,1c.26,0,.75.12.7-.52s-.65-.39-1-.41-.85-.21-.85.3S52.2,42.74,52.81,42.71ZM44.28,80.63c-.49,0-.82.09-.85.62a.65.65,0,0,0,.7.76c.42,0,.76-.16.79-.68S44.75,80.58,44.28,80.63ZM28.67,76.8c.32-.06.82.17.84-.48s-.4-.48-.74-.48-1-.12-1,.47S28.26,76.79,28.67,76.8Zm24.06-1c-.42,0-1-.08-1,.52s.55.45.94.44.85.13.82-.51S53,75.88,52.73,75.84Zm-6,1c.32,0,.82.14.79-.51s-.45-.43-.78-.44-1-.09-1,.51S46.29,76.8,46.72,76.8Zm9-35.05c-.31.14-.9-.26-.92.39,0,.47.44.59.88.59s1-.11.93-.66S56,41.85,55.69,41.75Zm-21,35.06c.32-.06.82.17.84-.48s-.41-.48-.74-.47-1-.12-1,.48S34.26,76.79,34.67,76.8Zm15.1-35.06c-.34.13-.93-.24-1,.32s.44.66.92.66.86-.11.88-.59S50.06,41.87,49.78,41.75Zm-6,0c-.34.13-.93-.24-1,.32s.44.66.92.66.86-.11.88-.59S44.06,41.87,43.78,41.75Zm-18.09,0c-.31.15-.92-.27-.91.4,0,.47.45.58.89.58s.88-.09.91-.56C26.61,41.47,26,41.89,25.69,41.74Zm12,0c-.31.14-.9-.26-.92.39,0,.47.44.59.88.59s1-.11.93-.66S38,41.85,37.69,41.75Zm3,35.06c.32,0,.76.12.78-.45s-.46-.5-.82-.51-.92-.05-.93.44S40.32,76.78,40.73,76.8ZM31.57,41.72c-.22.21-.8-.21-.8.37s.49.63,1,.63.88-.16.84-.62S31.95,41.88,31.57,41.72ZM47.11,37.6c0-.48-.3-.65-.77-.65s-.77.14-.79.65.29.67.75.66S47.08,38.13,47.11,37.6ZM49.65,76.8c.37,0,.81,0,.84-.42s-.45-.53-.85-.53-.79,0-.79.48S49.29,76.8,49.65,76.8Zm6-1c-.37,0-.79,0-.8.48s.42.49.79.48.89,0,.85-.53S56,75.83,55.65,75.84Zm-11.89,1c.25,0,.69,0,.73-.42s-.44-.54-.84-.54-.79,0-.8.47S43.27,76.8,43.76,76.8Zm-6.13,0c.4,0,.89,0,.87-.52s-.46-.45-.83-.44-.79,0-.81.46S37.26,76.79,37.63,76.8Zm-12-1c-.37,0-.79,0-.8.48s.42.49.79.48.89,0,.85-.53S26,75.83,25.65,75.84Zm5.79,1c.63,0,1.06,0,1.06-.49s-.43-.48-.79-.48-.89,0-.84.54S31.35,76.82,31.44,76.81ZM69.63,39.95c0-.29-.17-.41-.39-.34-.55.19-1.17.33-1.35,1a.3.3,0,0,0,.42.38A2,2,0,0,0,69.63,39.95Zm-2.47-2.11c-.09-.31-.19-.61-.58-.63a.68.68,0,0,0-.76.59c0,.36.21.57.57.59A.64.64,0,0,0,67.16,37.84ZM59,42.24c0-.47-.27-.52-.6-.47s-.81-.21-.78.37c0,.4.36.56.76.57S59,42.69,59,42.24Zm0,34c0-.44-.32-.42-.64-.42s-.68.11-.65.5.36.45.7.46S59.06,76.74,59,76.26Zm-42,7.63c.27-.08.69,0,.7-.42S17.3,83,17,83s-.84,0-.85.42C16.11,84,16.73,83.68,17.05,83.89Zm50.51-49c-.25.15-.83-.16-.82.48,0,.45.44.49.8.48s.78,0,.82-.48S67.93,35,67.56,34.9Z" transform="translate(-3.27 -3.81)"/><path d="M74.92,109.21c0-1.12-.05-2.24,0-3.36a2.56,2.56,0,0,1,2.69-2.37,2.66,2.66,0,0,1,2.87,2c.08.38.28.84-.24,1s-.64-.29-.75-.67a1.67,1.67,0,0,0-2-1.24,1.64,1.64,0,0,0-1.58,1.78c0,2.08,0,4.15.07,6.23,0,.78.51.88,1.16.8.38,0,.87-.15.89.47s-.46.56-.85.56c-1.08,0-2.16,0-3.24,0-.33,0-.67,0-.7-.44s.25-.55.62-.53c1,.06,1.1-.54,1.08-1.31,0-1,0-2,0-3Z" transform="translate(-3.27 -3.81)"/><path d="M7.92,8.63c0-.88,0-1.76,0-2.64s-.26-1.21-1.09-1.2c-.4,0-1,.17-1-.52s.67-.41,1.07-.42c1,0,2,0,3,0,.32,0,.66,0,.66.47s-.26.54-.62.52c-1-.05-1,.66-1,1.37,0,2,0,4.08-.06,6.11a2.45,2.45,0,0,1-2.73,2.39A2.53,2.53,0,0,1,3.3,12.36c0-.36-.14-.75.39-.83s.51.29.58.6a1.7,1.7,0,0,0,2.1,1.47c1.13-.14,1.48-1,1.5-2s0-2,0-3Z" transform="translate(-3.27 -3.81)"/><path d="M27.26,15.61c-.43,0-.6-.35-.85-.58a6,6,0,0,0-9.21,7.64c.65,1,1.31,2.1,1.93,3.17A6.09,6.09,0,0,1,20,28.55c.1,1.71.15,1.73,1.89,1.89a5.73,5.73,0,0,0,.94-.06h0c1.21.08,1.88-.33,1.84-1.7A2.51,2.51,0,0,1,25,27c0,1.93-.56,3.84-.31,5.79.06.44-.46.7-.92.81a10.6,10.6,0,0,1-4,0c-1.26-.2-.72-1.31-.74-1.89-.09-2.35-.27-4.63-1.62-6.66-.37-.56-.69-1.17-1.08-1.72A6.18,6.18,0,0,1,15.88,16c1.53-2.51,4-3.2,6.73-3A5.88,5.88,0,0,1,27.26,15.61ZM23.6,30.93a9.86,9.86,0,0,1-2.71-.13c-.51-.15-.46.32-.58.55-.22.45.24.94-.07,1.44-.1.16.3.47.59.38A16.79,16.79,0,0,0,24.06,32c.21-.11.39-.33.21-.58s-.36,0-.52.06a3.69,3.69,0,0,1-2.79.59C21.78,31.62,22.81,31.8,23.6,30.93Z" transform="translate(-3.27 -3.81)"/><path d="M27.83,22.22a9.71,9.71,0,0,0,.24-5A5.17,5.17,0,0,1,27.83,22.22Z" transform="translate(-3.27 -3.81)"/><path d="M59.25,105.11a8.31,8.31,0,0,0,4,.3,6,6,0,0,0,3.66-9.19c-1.4-2.14-2.88-4.23-2.82-7,0-.36-.19-.49-.51-.52a15.66,15.66,0,0,0-1.89-.21c-1.94,0-2,.12-2.16,2.06A3.51,3.51,0,0,1,59,92.3a32.14,32.14,0,0,0,.48-6.13c0-.18.14-.27.32-.28-.19.47.35.92,0,1.46-.11.17.09.83.76.77.84-.07,1.7,0,2.84,0a7,7,0,0,0-2.95-1.22,3.66,3.66,0,0,1,2.79.49c.19.1.43.36.59,0s-.06-.41-.31-.54a9.91,9.91,0,0,0-3.61-1.09c.84-.74,1.87-.39,2.82-.5a3.19,3.19,0,0,1,.71.1c1.78.22,1.92.28,1.78,1.94A12.78,12.78,0,0,0,68,95.95a6.24,6.24,0,0,1-4.49,10A6.47,6.47,0,0,1,59.25,105.11Z" transform="translate(-3.27 -3.81)"/><path d="M56.17,97.06a7,7,0,0,0,.85,6.15C55.52,102,55.13,99.14,56.17,97.06Z" transform="translate(-3.27 -3.81)"/><path d="M34.28,93.36c-.75.71-.73,1,.09,1.17,1,.21,1.9.85,3.24.48-1,1.44-2.29,1.45-3.52,1.72-.43.1-1.18-.45-1.23.59,0,.23-.42.1-.5-.15A3.71,3.71,0,0,1,34.28,93.36Z" transform="translate(-3.27 -3.81)"/><path d="M36.69,88.53a3.3,3.3,0,0,0-3,.55c-.61.35-1.15.92-2,.64-.08,0-.18-.22-.15-.27.38-.75,1.2-.67,1.84-.94a17,17,0,0,1,1.7-.57C35.6,87.8,36,87.89,36.69,88.53Z" transform="translate(-3.27 -3.81)"/><path d="M36.51,98a4.49,4.49,0,0,1-3.95,1.12c-.38-.05-.92-.2-.81-.67s.58-.13.88-.05A7.13,7.13,0,0,0,36.51,98Z" transform="translate(-3.27 -3.81)"/><path d="M32,90.71l-.26.21c-.51.26-1,.71-1.62.33a.33.33,0,0,1-.06-.3C30.6,90.5,31.2,90.57,32,90.71Z" transform="translate(-3.27 -3.81)"/><path d="M46.89,23.55c.86-1.14,2.16-1.1,3.29-1.51.42-.15,1.16.35,1.26-.61,0-.21.45,0,.45.26a5.34,5.34,0,0,1-.19.91c-.1.59.36,1.44-.34,1.73a3.09,3.09,0,0,1-2.3-.31A3.83,3.83,0,0,0,46.89,23.55Z" transform="translate(-3.27 -3.81)"/><path d="M48.13,20.56A3.78,3.78,0,0,1,52,19.68c.31.11.66.24.54.64s-.48.17-.7.09A6.56,6.56,0,0,0,48.13,20.56Z" transform="translate(-3.27 -3.81)"/><path d="M48.39,30.85a8.32,8.32,0,0,0,3-1.61,1.6,1.6,0,0,1,1-.23c.21,0,.4.14.39.36a.47.47,0,0,1-.22.36C51.22,30.19,50,31.06,48.39,30.85Z" transform="translate(-3.27 -3.81)"/><path d="M51.86,28.22c.78-.34,1.33-.61,1.9-.83a.32.32,0,0,1,.44.27c0,.23-.06.4-.29.41A6,6,0,0,1,51.86,28.22Z" transform="translate(-3.27 -3.81)"/><path d="M56.6,59.12c0,2.19.08,4.39-.17,6.57-.12,1-.41,1.87-1.59,1.86s-1.5-.92-1.55-1.9c-.22-4.38-.21-8.77,0-13.15,0-1,.32-1.88,1.54-1.91s1.49.84,1.61,1.83C56.69,54.65,56.57,56.89,56.6,59.12Z" transform="translate(-3.27 -3.81)"/><path d="M28.28,59c0-2,0-4,0-6a5.42,5.42,0,0,1,.08-1c.16-.86.54-1.53,1.54-1.52s1.41.64,1.52,1.52a16.25,16.25,0,0,1,.16,1.9c.05,3.71.15,7.41-.07,11.12a7.12,7.12,0,0,1-.19,1.3,1.47,1.47,0,0,1-2.85,0,13.06,13.06,0,0,1-.28-3.09c0-1.44,0-2.87,0-4.31Z" transform="translate(-3.27 -3.81)"/><path d="M22.78,30.38c.13-.66.27-1.32.38-2,.06-.33.32-.77-.1-1a1.87,1.87,0,0,0-1.52,0c-.41.18-.17.64-.13,1,.08.57.45,1.09.28,1.72-.47-.92-1.06-1.83-.6-2.93.19-.46,0-.77-.15-1.13a21.49,21.49,0,0,1-1.28-6.79c0-.82.15-1.6,1.23-.77.27.21.42.09.61-.08a.72.72,0,0,1,1.07,0c.24.24.41.21.71.08,1.09-.47,1.38-.23,1.29,1a32,32,0,0,1-1.11,6.23c-.31,1.12.58,2.13,0,3.2-.25.47-.11,1.14-.72,1.45ZM20.09,20.08a24.52,24.52,0,0,0,1.39,6.17.81.81,0,0,0,.87.64c.44,0,.53-.28.6-.6a55.29,55.29,0,0,0,1.22-6.71c0-.29.25-.84-.3-.85s-.75.35-.65.91a10.29,10.29,0,0,1,.13,1.66c0,.31-.23.82-.52.6-.64-.48-1.09-.19-1.67,0-.32.12-.62-.31-.71-.67a2.54,2.54,0,0,1,.12-1.18c.09-.42.56-.88,0-1.3-.08-.06-.28-.11-.31-.07C19.94,19.13,20.06,19.61,20.09,20.08Zm1.86.65c.2-.48.34-.85.51-1.21a.6.6,0,0,0-.12-.76c-.16-.16-.33-.24-.51-.07s-.48.42-.32.8S21.78,20.25,22,20.74Z" transform="translate(-3.27 -3.81)"/><path d="M62.75,88.86c.12,1.06.94,2,.17,3.22-.11.17,0,.53.1.8a41.91,41.91,0,0,1,1.12,6.71c0,1.17-.22,1.36-1.26.84-.32-.16-.48-.14-.7.08a.71.71,0,0,1-1.06,0c-.18-.15-.34-.31-.62-.11-1.22.88-1.24-.11-1.25-.87a21,21,0,0,1,1.14-6.21,3.13,3.13,0,0,0,.19-2c-.25-.83.21-1.74.77-2.85.12,1.05-.35,1.63-.38,2.28,0,.3-.17.69.25.82a2,2,0,0,0,1.41,0c.39-.17.23-.55.16-.85-.13-.61-.28-1.21-.42-1.82ZM59.64,99.18a.83.83,0,0,0,0,.22,2.84,2.84,0,0,0,.17.8c.06.13.27,0,.4-.09.29-.27.2-.55.08-.87a5.08,5.08,0,0,1-.27-1,1,1,0,0,1,.49-1.13.58.58,0,0,1,.89.3c.18.36.25.05.38,0C62.65,96.82,63,97,63,98a5.59,5.59,0,0,1-.1,1c-.07.43-.26.87.24,1.17.17.11.38.28.53.1.28-.34.14-.76.09-1.15A60.37,60.37,0,0,0,62.61,93c-.09-.4-.08-.9-.73-.91s-.73.41-.88.82A24.94,24.94,0,0,0,59.64,99.18Zm1.9-1c-.15.43-.27.84-.44,1.23s.07.59.31.8a.34.34,0,0,0,.52,0,.6.6,0,0,0,.13-.75C61.86,99,61.72,98.63,61.54,98.18Z" transform="translate(-3.27 -3.81)"/></svg>