<?xml version="1.0" encoding="utf-8"?>
<!-- Generator: Adobe Illustrator 20.1.0, SVG Export Plug-In . SVG Version: 6.00 Build 0)  -->
<svg version="1.1" id="Layer_1" xmlns="http://www.w3.org/2000/svg" xmlns:xlink="http://www.w3.org/1999/xlink" x="0px" y="0px"
	 viewBox="0 0 400 400" style="enable-background:new 0 0 400 400;" xml:space="preserve">
<style type="text/css">
	.st0{fill:#4B4745;}
	.st1{fill:#48BCE7;}
</style>
<g>
	<path class="st0" d="M73.1,347.5c-17.8-7.9-32.3-19.2-43.6-33.8l40.3-48.3c17,23,36.4,34.5,58.2,34.5c29.5,0,44.3-17.3,44.3-51.9
		V98.8H62.1V40.6h182.2v203.2c0,38.5-9.6,67.4-28.6,86.6c-19.1,19.2-47.2,28.9-84.2,28.9C110.3,359.4,90.8,355.4,73.1,347.5z"/>
	<polygon class="st0" points="326.2,114.3 287.2,114.3 279.7,132.3 259.8,132.3 297.2,48.3 316.4,48.3 354,132.3 333.6,132.3 	"/>
	<polygon class="st1" points="320,99.5 306.7,67.3 293.4,99.5 	"/>
	<polygon class="st1" points="271.8,261.7 288.3,310.9 328.6,261.7 	"/>
	<path class="st1" d="M311,232.2c-19.4,0-35.2-15.7-35.2-35.2c0-19.4,15.7-35.2,35.2-35.2"/>
	<path class="st0" d="M285.4,236.9c-6.9-3.7-12.4-8.9-16.3-15.5c-4-6.6-5.9-14.1-5.9-22.4c0-8.3,2-15.8,5.9-22.4
		c4-6.6,9.4-11.8,16.3-15.5c6.9-3.7,14.7-5.6,23.3-5.6c7.3,0,13.9,1.3,19.7,3.8c5.9,2.6,10.8,6.2,14.8,11L330.9,182
		c-5.7-6.6-12.7-9.8-21.1-9.8c-5.2,0-9.8,1.1-13.9,3.4c-4.1,2.3-7.3,5.5-9.5,9.5c-2.3,4.1-3.4,8.7-3.4,13.9c0,5.2,1.1,9.8,3.4,13.9
		c2.3,4.1,5.5,7.3,9.5,9.5c4.1,2.3,8.7,3.4,13.9,3.4c8.4,0,15.4-3.3,21.1-10l12.5,11.5c-4,4.9-9,8.6-14.9,11.2
		c-5.9,2.6-12.5,3.8-19.8,3.8C300.1,242.4,292.3,240.6,285.4,236.9z"/>
	<polygon class="st0" points="301.3,312.8 290,324.5 290,345.8 270.7,345.8 270.7,261.7 290,261.7 290,301 327.3,261.7 348.9,261.7 
		314.1,299.2 350.9,345.8 328.2,345.8 	"/>
</g>
</svg>
